<mxfile host="app.diagrams.net" modified="2020-07-12T02:38:58.533Z" agent="5.0 (Macintosh; Intel Mac OS X 10_15_5) AppleWebKit/537.36 (KHTML, like Gecko) Chrome/83.0.4103.116 Safari/537.36" etag="KWwN86cQjco2lqwBRl_Q" version="13.4.0" type="github">
  <diagram id="HM8mUGSScF4-tPOdzaoS" name="Page-1">
    <mxGraphModel dx="2066" dy="1105" grid="1" gridSize="10" guides="1" tooltips="1" connect="1" arrows="1" fold="1" page="1" pageScale="1" pageWidth="827" pageHeight="1169" math="0" shadow="0">
      <root>
        <mxCell id="0" />
        <mxCell id="1" parent="0" />
        <mxCell id="0wnWjN9yuOL5UEhsJqmL-3" value="" style="whiteSpace=wrap;html=1;aspect=fixed;fillColor=#e1d5e7;strokeColor=#9673a6;" vertex="1" parent="1">
          <mxGeometry x="280" y="130" width="590" height="590" as="geometry" />
        </mxCell>
        <mxCell id="0wnWjN9yuOL5UEhsJqmL-1" value="" style="rounded=0;whiteSpace=wrap;html=1;fillColor=#dae8fc;strokeColor=#6c8ebf;" vertex="1" parent="1">
          <mxGeometry x="370" y="170" width="180" height="240" as="geometry" />
        </mxCell>
        <mxCell id="0wnWjN9yuOL5UEhsJqmL-4" value="" style="curved=1;endArrow=classic;html=1;" edge="1" parent="1">
          <mxGeometry width="50" height="50" relative="1" as="geometry">
            <mxPoint x="405" y="265" as="sourcePoint" />
            <mxPoint x="455" y="215" as="targetPoint" />
            <Array as="points">
              <mxPoint x="455" y="265" />
              <mxPoint x="405" y="215" />
            </Array>
          </mxGeometry>
        </mxCell>
        <mxCell id="0wnWjN9yuOL5UEhsJqmL-5" value="" style="rounded=0;whiteSpace=wrap;html=1;fillColor=none;" vertex="1" parent="1">
          <mxGeometry x="390" y="200" width="140" height="80" as="geometry" />
        </mxCell>
        <mxCell id="0wnWjN9yuOL5UEhsJqmL-6" value="" style="curved=1;endArrow=classic;html=1;" edge="1" parent="1">
          <mxGeometry width="50" height="50" relative="1" as="geometry">
            <mxPoint x="465" y="265" as="sourcePoint" />
            <mxPoint x="515" y="215" as="targetPoint" />
            <Array as="points">
              <mxPoint x="515" y="265" />
              <mxPoint x="465" y="215" />
            </Array>
          </mxGeometry>
        </mxCell>
        <mxCell id="0wnWjN9yuOL5UEhsJqmL-7" value="" style="curved=1;endArrow=classic;html=1;" edge="1" parent="1">
          <mxGeometry width="50" height="50" relative="1" as="geometry">
            <mxPoint x="405" y="365" as="sourcePoint" />
            <mxPoint x="455" y="315" as="targetPoint" />
            <Array as="points">
              <mxPoint x="455" y="365" />
              <mxPoint x="405" y="315" />
            </Array>
          </mxGeometry>
        </mxCell>
        <mxCell id="0wnWjN9yuOL5UEhsJqmL-8" value="" style="rounded=0;whiteSpace=wrap;html=1;fillColor=none;" vertex="1" parent="1">
          <mxGeometry x="390" y="300" width="140" height="80" as="geometry" />
        </mxCell>
        <mxCell id="0wnWjN9yuOL5UEhsJqmL-9" value="" style="curved=1;endArrow=classic;html=1;" edge="1" parent="1">
          <mxGeometry width="50" height="50" relative="1" as="geometry">
            <mxPoint x="465" y="365" as="sourcePoint" />
            <mxPoint x="515" y="315" as="targetPoint" />
            <Array as="points">
              <mxPoint x="515" y="365" />
              <mxPoint x="465" y="315" />
            </Array>
          </mxGeometry>
        </mxCell>
        <mxCell id="0wnWjN9yuOL5UEhsJqmL-11" value="" style="rounded=0;whiteSpace=wrap;html=1;fillColor=#dae8fc;strokeColor=#6c8ebf;" vertex="1" parent="1">
          <mxGeometry x="600" y="170" width="180" height="240" as="geometry" />
        </mxCell>
        <mxCell id="0wnWjN9yuOL5UEhsJqmL-12" value="" style="curved=1;endArrow=classic;html=1;" edge="1" parent="1">
          <mxGeometry width="50" height="50" relative="1" as="geometry">
            <mxPoint x="635" y="265" as="sourcePoint" />
            <mxPoint x="685" y="215" as="targetPoint" />
            <Array as="points">
              <mxPoint x="685" y="265" />
              <mxPoint x="635" y="215" />
            </Array>
          </mxGeometry>
        </mxCell>
        <mxCell id="0wnWjN9yuOL5UEhsJqmL-13" value="" style="rounded=0;whiteSpace=wrap;html=1;fillColor=none;" vertex="1" parent="1">
          <mxGeometry x="620" y="200" width="140" height="80" as="geometry" />
        </mxCell>
        <mxCell id="0wnWjN9yuOL5UEhsJqmL-14" value="" style="curved=1;endArrow=classic;html=1;" edge="1" parent="1">
          <mxGeometry width="50" height="50" relative="1" as="geometry">
            <mxPoint x="695" y="265" as="sourcePoint" />
            <mxPoint x="745" y="215" as="targetPoint" />
            <Array as="points">
              <mxPoint x="745" y="265" />
              <mxPoint x="695" y="215" />
            </Array>
          </mxGeometry>
        </mxCell>
        <mxCell id="0wnWjN9yuOL5UEhsJqmL-15" value="" style="curved=1;endArrow=classic;html=1;" edge="1" parent="1">
          <mxGeometry width="50" height="50" relative="1" as="geometry">
            <mxPoint x="635" y="365" as="sourcePoint" />
            <mxPoint x="685" y="315" as="targetPoint" />
            <Array as="points">
              <mxPoint x="685" y="365" />
              <mxPoint x="635" y="315" />
            </Array>
          </mxGeometry>
        </mxCell>
        <mxCell id="0wnWjN9yuOL5UEhsJqmL-16" value="" style="rounded=0;whiteSpace=wrap;html=1;fillColor=none;" vertex="1" parent="1">
          <mxGeometry x="620" y="300" width="140" height="80" as="geometry" />
        </mxCell>
        <mxCell id="0wnWjN9yuOL5UEhsJqmL-17" value="" style="curved=1;endArrow=classic;html=1;" edge="1" parent="1">
          <mxGeometry width="50" height="50" relative="1" as="geometry">
            <mxPoint x="695" y="365" as="sourcePoint" />
            <mxPoint x="745" y="315" as="targetPoint" />
            <Array as="points">
              <mxPoint x="745" y="365" />
              <mxPoint x="695" y="315" />
            </Array>
          </mxGeometry>
        </mxCell>
        <mxCell id="0wnWjN9yuOL5UEhsJqmL-18" value="" style="rounded=0;whiteSpace=wrap;html=1;fillColor=#dae8fc;strokeColor=#6c8ebf;" vertex="1" parent="1">
          <mxGeometry x="600" y="440" width="180" height="240" as="geometry" />
        </mxCell>
        <mxCell id="0wnWjN9yuOL5UEhsJqmL-19" value="" style="curved=1;endArrow=classic;html=1;" edge="1" parent="1">
          <mxGeometry width="50" height="50" relative="1" as="geometry">
            <mxPoint x="635" y="535" as="sourcePoint" />
            <mxPoint x="685" y="485" as="targetPoint" />
            <Array as="points">
              <mxPoint x="685" y="535" />
              <mxPoint x="635" y="485" />
            </Array>
          </mxGeometry>
        </mxCell>
        <mxCell id="0wnWjN9yuOL5UEhsJqmL-20" value="" style="rounded=0;whiteSpace=wrap;html=1;fillColor=none;" vertex="1" parent="1">
          <mxGeometry x="620" y="470" width="140" height="80" as="geometry" />
        </mxCell>
        <mxCell id="0wnWjN9yuOL5UEhsJqmL-21" value="" style="curved=1;endArrow=classic;html=1;" edge="1" parent="1">
          <mxGeometry width="50" height="50" relative="1" as="geometry">
            <mxPoint x="695" y="535" as="sourcePoint" />
            <mxPoint x="745" y="485" as="targetPoint" />
            <Array as="points">
              <mxPoint x="745" y="535" />
              <mxPoint x="695" y="485" />
            </Array>
          </mxGeometry>
        </mxCell>
        <mxCell id="0wnWjN9yuOL5UEhsJqmL-22" value="" style="curved=1;endArrow=classic;html=1;" edge="1" parent="1">
          <mxGeometry width="50" height="50" relative="1" as="geometry">
            <mxPoint x="635" y="635" as="sourcePoint" />
            <mxPoint x="685" y="585" as="targetPoint" />
            <Array as="points">
              <mxPoint x="685" y="635" />
              <mxPoint x="635" y="585" />
            </Array>
          </mxGeometry>
        </mxCell>
        <mxCell id="0wnWjN9yuOL5UEhsJqmL-23" value="" style="rounded=0;whiteSpace=wrap;html=1;fillColor=none;" vertex="1" parent="1">
          <mxGeometry x="620" y="570" width="140" height="80" as="geometry" />
        </mxCell>
        <mxCell id="0wnWjN9yuOL5UEhsJqmL-24" value="" style="curved=1;endArrow=classic;html=1;" edge="1" parent="1">
          <mxGeometry width="50" height="50" relative="1" as="geometry">
            <mxPoint x="695" y="635" as="sourcePoint" />
            <mxPoint x="745" y="585" as="targetPoint" />
            <Array as="points">
              <mxPoint x="745" y="635" />
              <mxPoint x="695" y="585" />
            </Array>
          </mxGeometry>
        </mxCell>
        <mxCell id="0wnWjN9yuOL5UEhsJqmL-25" value="" style="rounded=0;whiteSpace=wrap;html=1;fillColor=#dae8fc;strokeColor=#6c8ebf;" vertex="1" parent="1">
          <mxGeometry x="370" y="440" width="180" height="240" as="geometry" />
        </mxCell>
        <mxCell id="0wnWjN9yuOL5UEhsJqmL-26" value="" style="curved=1;endArrow=classic;html=1;" edge="1" parent="1">
          <mxGeometry width="50" height="50" relative="1" as="geometry">
            <mxPoint x="405" y="535" as="sourcePoint" />
            <mxPoint x="455" y="485" as="targetPoint" />
            <Array as="points">
              <mxPoint x="455" y="535" />
              <mxPoint x="405" y="485" />
            </Array>
          </mxGeometry>
        </mxCell>
        <mxCell id="0wnWjN9yuOL5UEhsJqmL-27" value="" style="rounded=0;whiteSpace=wrap;html=1;fillColor=none;" vertex="1" parent="1">
          <mxGeometry x="390" y="470" width="140" height="80" as="geometry" />
        </mxCell>
        <mxCell id="0wnWjN9yuOL5UEhsJqmL-28" value="" style="curved=1;endArrow=classic;html=1;" edge="1" parent="1">
          <mxGeometry width="50" height="50" relative="1" as="geometry">
            <mxPoint x="465" y="535" as="sourcePoint" />
            <mxPoint x="515" y="485" as="targetPoint" />
            <Array as="points">
              <mxPoint x="515" y="535" />
              <mxPoint x="465" y="485" />
            </Array>
          </mxGeometry>
        </mxCell>
        <mxCell id="0wnWjN9yuOL5UEhsJqmL-29" value="" style="curved=1;endArrow=classic;html=1;" edge="1" parent="1">
          <mxGeometry width="50" height="50" relative="1" as="geometry">
            <mxPoint x="405" y="635" as="sourcePoint" />
            <mxPoint x="455" y="585" as="targetPoint" />
            <Array as="points">
              <mxPoint x="455" y="635" />
              <mxPoint x="405" y="585" />
            </Array>
          </mxGeometry>
        </mxCell>
        <mxCell id="0wnWjN9yuOL5UEhsJqmL-30" value="" style="rounded=0;whiteSpace=wrap;html=1;fillColor=none;" vertex="1" parent="1">
          <mxGeometry x="390" y="570" width="140" height="80" as="geometry" />
        </mxCell>
        <mxCell id="0wnWjN9yuOL5UEhsJqmL-31" value="" style="curved=1;endArrow=classic;html=1;" edge="1" parent="1">
          <mxGeometry width="50" height="50" relative="1" as="geometry">
            <mxPoint x="465" y="635" as="sourcePoint" />
            <mxPoint x="515" y="585" as="targetPoint" />
            <Array as="points">
              <mxPoint x="515" y="635" />
              <mxPoint x="465" y="585" />
            </Array>
          </mxGeometry>
        </mxCell>
        <mxCell id="0wnWjN9yuOL5UEhsJqmL-60" value="" style="endArrow=classic;html=1;" edge="1" parent="1" target="0wnWjN9yuOL5UEhsJqmL-3">
          <mxGeometry width="50" height="50" relative="1" as="geometry">
            <mxPoint x="100" y="210" as="sourcePoint" />
            <mxPoint x="150" y="160" as="targetPoint" />
          </mxGeometry>
        </mxCell>
        <mxCell id="0wnWjN9yuOL5UEhsJqmL-61" value="System" style="text;html=1;align=center;verticalAlign=middle;resizable=0;points=[];autosize=1;" vertex="1" parent="1">
          <mxGeometry x="40" y="190" width="60" height="20" as="geometry" />
        </mxCell>
        <mxCell id="0wnWjN9yuOL5UEhsJqmL-62" value="" style="endArrow=classic;html=1;" edge="1" parent="1">
          <mxGeometry width="50" height="50" relative="1" as="geometry">
            <mxPoint x="200" y="320" as="sourcePoint" />
            <mxPoint x="380" y="401.47368421052624" as="targetPoint" />
          </mxGeometry>
        </mxCell>
        <mxCell id="0wnWjN9yuOL5UEhsJqmL-63" value="Chip&lt;span style=&quot;color: rgba(0 , 0 , 0 , 0) ; font-family: monospace ; font-size: 0px&quot;&gt;%3CmxGraphModel%3E%3Croot%3E%3CmxCell%20id%3D%220%22%2F%3E%3CmxCell%20id%3D%221%22%20parent%3D%220%22%2F%3E%3CmxCell%20id%3D%222%22%20value%3D%22%22%20style%3D%22endArrow%3Dclassic%3Bhtml%3D1%3B%22%20edge%3D%221%22%20parent%3D%221%22%3E%3CmxGeometry%20width%3D%2250%22%20height%3D%2250%22%20relative%3D%221%22%20as%3D%22geometry%22%3E%3CmxPoint%20x%3D%22100%22%20y%3D%22210%22%20as%3D%22sourcePoint%22%2F%3E%3CmxPoint%20x%3D%22280%22%20y%3D%22291.47368421052624%22%20as%3D%22targetPoint%22%2F%3E%3C%2FmxGeometry%3E%3C%2FmxCell%3E%3CmxCell%20id%3D%223%22%20value%3D%22System%22%20style%3D%22text%3Bhtml%3D1%3Balign%3Dcenter%3BverticalAlign%3Dmiddle%3Bresizable%3D0%3Bpoints%3D%5B%5D%3Bautosize%3D1%3B%22%20vertex%3D%221%22%20parent%3D%221%22%3E%3CmxGeometry%20x%3D%2240%22%20y%3D%22190%22%20width%3D%2260%22%20height%3D%2220%22%20as%3D%22geometry%22%2F%3E%3C%2FmxCell%3E%3C%2Froot%3E%3C%2FmxGraphModel%3E&lt;/span&gt;&lt;span style=&quot;color: rgba(0 , 0 , 0 , 0) ; font-family: monospace ; font-size: 0px&quot;&gt;%3CmxGraphModel%3E%3Croot%3E%3CmxCell%20id%3D%220%22%2F%3E%3CmxCell%20id%3D%221%22%20parent%3D%220%22%2F%3E%3CmxCell%20id%3D%222%22%20value%3D%22%22%20style%3D%22endArrow%3Dclassic%3Bhtml%3D1%3B%22%20edge%3D%221%22%20parent%3D%221%22%3E%3CmxGeometry%20width%3D%2250%22%20height%3D%2250%22%20relative%3D%221%22%20as%3D%22geometry%22%3E%3CmxPoint%20x%3D%22100%22%20y%3D%22210%22%20as%3D%22sourcePoint%22%2F%3E%3CmxPoint%20x%3D%22280%22%20y%3D%22291.47368421052624%22%20as%3D%22targetPoint%22%2F%3E%3C%2FmxGeometry%3E%3C%2FmxCell%3E%3CmxCell%20id%3D%223%22%20value%3D%22System%22%20style%3D%22text%3Bhtml%3D1%3Balign%3Dcenter%3BverticalAlign%3Dmiddle%3Bresizable%3D0%3Bpoints%3D%5B%5D%3Bautosize%3D1%3B%22%20vertex%3D%221%22%20parent%3D%221%22%3E%3CmxGeometry%20x%3D%2240%22%20y%3D%22190%22%20width%3D%2260%22%20height%3D%2220%22%20as%3D%22geometry%22%2F%3E%3C%2FmxCell%3E%3C%2Froot%3E%3C%2FmxGraphModel%3E&lt;/span&gt;" style="text;html=1;align=center;verticalAlign=middle;resizable=0;points=[];autosize=1;" vertex="1" parent="1">
          <mxGeometry x="150" y="300" width="40" height="20" as="geometry" />
        </mxCell>
        <mxCell id="0wnWjN9yuOL5UEhsJqmL-64" value="" style="endArrow=classic;html=1;" edge="1" parent="1">
          <mxGeometry width="50" height="50" relative="1" as="geometry">
            <mxPoint x="234" y="140" as="sourcePoint" />
            <mxPoint x="414" y="221.47368421052624" as="targetPoint" />
          </mxGeometry>
        </mxCell>
        <mxCell id="0wnWjN9yuOL5UEhsJqmL-65" value="Core" style="text;html=1;align=center;verticalAlign=middle;resizable=0;points=[];autosize=1;" vertex="1" parent="1">
          <mxGeometry x="184" y="120" width="40" height="20" as="geometry" />
        </mxCell>
        <mxCell id="0wnWjN9yuOL5UEhsJqmL-68" value="" style="endArrow=classic;html=1;" edge="1" parent="1">
          <mxGeometry width="50" height="50" relative="1" as="geometry">
            <mxPoint x="250" y="450" as="sourcePoint" />
            <mxPoint x="430" y="531.4736842105262" as="targetPoint" />
          </mxGeometry>
        </mxCell>
        <mxCell id="0wnWjN9yuOL5UEhsJqmL-69" value="Thread" style="text;html=1;align=center;verticalAlign=middle;resizable=0;points=[];autosize=1;" vertex="1" parent="1">
          <mxGeometry x="195" y="430" width="50" height="20" as="geometry" />
        </mxCell>
      </root>
    </mxGraphModel>
  </diagram>
</mxfile>
